<svg width="109" height="142" fill="none" xmlns="http://www.w3.org/2000/svg"><path d="M6.28 120.008h96.439c3.785-2.53 6.281-6.8 6.281-11.642v-90.89c0-7.763-6.399-14.078-14.264-14.078H70.488V1.789A1.8 1.8 0 0068.676 0H40.324a1.801 1.801 0 00-1.813 1.79v1.608H14.264C6.398 3.398 0 9.713 0 17.475v90.891c0 4.842 2.496 9.112 6.28 11.642z" fill="#fff"/><path d="M94.735 122.442H14.264C6.398 122.442 0 116.128 0 108.365v-90.89C0 9.713 6.398 3.398 14.264 3.398h80.471c7.866 0 14.264 6.315 14.264 14.077v90.89c0 7.763-6.398 14.077-14.264 14.077zM14.264 8.653c-4.929 0-8.94 3.957-8.94 8.822v90.89c0 4.864 4.011 8.822 8.94 8.822h80.471c4.928 0 8.939-3.958 8.939-8.822v-90.89c0-4.865-4.01-8.822-8.939-8.822H14.264z" fill="#1391E6"/><path fill-rule="evenodd" clip-rule="evenodd" d="M19.24 21.8h70.52c4.398 0 7.963 3.498 7.963 7.812v41.59c0 4.314-3.564 7.81-7.962 7.81H19.24c-4.398 0-7.963-3.496-7.963-7.81v-41.59c0-4.315 3.565-7.811 7.963-7.811zm70.52 3.74c2.289 0 4.151 1.827 4.151 4.072v41.59c0 2.245-1.862 4.071-4.15 4.071H19.24c-2.289 0-4.15-1.826-4.15-4.071v-41.59c0-2.245 1.861-4.072 4.15-4.072h70.52zM74.3 96.498c0-6.532 5.243-11.827 11.712-11.827 6.468 0 11.711 5.295 11.711 11.827 0 6.531-5.243 11.826-11.711 11.826-6.469 0-11.713-5.295-11.713-11.826zm11.71-8.088c4.416 0 8.009 3.629 8.009 8.088s-3.593 8.086-8.009 8.086-8.009-3.627-8.009-8.086c0-4.46 3.593-8.088 8.01-8.088zM11 96.498c0-6.532 5.244-11.827 11.712-11.827 6.469 0 11.712 5.295 11.712 11.827 0 6.531-5.243 11.826-11.712 11.826-6.468 0-11.712-5.295-11.712-11.826zm11.712-8.088c4.416 0 8.008 3.629 8.008 8.088s-3.592 8.086-8.008 8.086c-4.416 0-8.009-3.627-8.009-8.086 0-4.46 3.593-8.088 8.01-8.088z" fill="#1391E6"/><path d="M64.215 18.294h-19.43c-1.437 0-2.602-1.177-2.602-2.628 0-1.45 1.165-2.627 2.602-2.627h19.43c1.438 0 2.603 1.176 2.603 2.627 0 1.451-1.165 2.628-2.603 2.628zM2.602 142c-.603 0-1.209-.21-1.7-.639a2.645 2.645 0 01-.27-3.706l16.716-19.557a2.584 2.584 0 013.67-.272 2.645 2.645 0 01.27 3.706L4.572 141.089a2.586 2.586 0 01-1.97.911zm103.796 0a2.585 2.585 0 01-1.97-.911l-16.716-19.557a2.646 2.646 0 01.269-3.706 2.585 2.585 0 013.67.272l16.716 19.557a2.646 2.646 0 01-.269 3.706 2.577 2.577 0 01-1.7.639z" fill="#1391E6"/><path d="M97.652 133.281h-86.62c-1.477 0-2.674-1.177-2.674-2.627 0-1.451 1.197-2.628 2.675-2.628h86.619c1.476 0 2.674 1.177 2.674 2.628 0 1.45-1.198 2.627-2.674 2.627zM68.355 0h-27.71a1.78 1.78 0 00-1.772 1.79v4.257a1.78 1.78 0 001.772 1.788h27.71c.979 0 1.771-.8 1.771-1.788V1.79A1.78 1.78 0 0068.356 0z" fill="#1391E6"/></svg>