<svg width="129" height="129" fill="none" xmlns="http://www.w3.org/2000/svg"><ellipse cx="64.436" cy="64.564" rx="61.812" ry="61.813" fill="#fff"/><path d="M64.436 129C28.906 129 0 100.094 0 64.564 0 29.034 28.906.129 64.436.129c35.53 0 64.435 28.905 64.435 64.435S99.966 129 64.436 129zm0-123.625c-32.637 0-59.19 26.552-59.19 59.189s26.553 59.19 59.19 59.19 59.189-26.553 59.189-59.19-26.552-59.19-59.19-59.19z" fill="#1391E6"/><circle cx="64.436" cy="14.18" fill="#1391E6" r="3.778"/><circle cx="64.436" cy="114.948" fill="#1391E6" r="3.778"/><circle cx="114.82" cy="64.564" fill="#1391E6" r="3.778"/><circle cx="14.052" cy="64.564" fill="#1391E6" r="3.778"/><circle cx="108.07" cy="39.372" fill="#1391E6" r="2.06"/><circle cx="20.802" cy="89.756" fill="#1391E6" r="2.06"/><circle cx="89.628" cy="20.93" fill="#1391E6" r="2.06"/><circle cx="39.244" cy="108.198" fill="#1391E6" r="2.06"/><circle cx="39.244" cy="20.93" fill="#1391E6" r="2.06"/><circle cx="89.628" cy="108.198" fill="#1391E6" r="2.06"/><circle cx="20.802" cy="39.372" fill="#1391E6" r="2.06"/><circle cx="108.07" cy="89.756" fill="#1391E6" r="2.06"/><path d="M64.436 106.65c-1.053 0-1.926-1.163-1.994-2.659l-1.647-36.403c-.075-1.637.84-3.023 1.994-3.023h3.294c1.154 0 2.068 1.386 1.995 3.023l-1.648 36.403c-.068 1.496-.94 2.659-1.994 2.659z" fill="#1391E6"/><path d="M33.713 72.981c-.305-1.142.287-2.313 1.35-2.676L60.99 61.46c1.166-.398 2.436.324 2.771 1.575l.955 3.572c.334 1.251-.406 2.51-1.616 2.748l-26.88 5.271c-1.105.217-2.201-.503-2.507-1.646z" fill="#1391E6"/><circle cx="64.169" cy="64.564" fill="#1391E6" r="5.07"/></svg>