<svg width="168" height="113" fill="none" xmlns="http://www.w3.org/2000/svg"><path d="M27.038 44.562a2.375 2.375 0 00-2.366-2.385h-.002L2.383 42.11a2.378 2.378 0 00-.013 4.756l22.288.066a2.377 2.377 0 002.381-2.371zm.536-18.925L10.53 19.293a2.376 2.376 0 00-3.054 1.4 2.38 2.38 0 001.4 3.059l17.043 6.344a2.376 2.376 0 003.055-1.4 2.381 2.381 0 00-1.4-3.06zM25.833 59.22l-15.99 5.846a2.38 2.38 0 00.808 4.614c.28 0 .559-.05.821-.145l15.99-5.847a2.382 2.382 0 001.415-3.052 2.373 2.373 0 00-3.044-1.417zm139.799-16.63l-22.288-.065a2.373 2.373 0 00-2.381 2.368v.004a2.375 2.375 0 002.366 2.385h.002l22.287.066a2.376 2.376 0 002.382-2.37v-.002a2.377 2.377 0 00-2.366-2.386h-.002zm-24.286-12.008c.28.002.559-.046.821-.143l17.079-6.246a2.38 2.38 0 001.417-3.049 2.375 2.375 0 00-3.046-1.42l-17.079 6.244a2.38 2.38 0 00.808 4.614zm16.69 34.916l-15.95-5.936a2.373 2.373 0 00-3.053 1.4h-.001a2.38 2.38 0 001.4 3.058l15.949 5.937a2.378 2.378 0 001.655-4.459zM59.837 0C54.07 0 49.548 1.779 46.394 5.286c-5.057 5.62-6.733 15.68-5.123 30.756 5.503 51.607 14.3 76.751 26.897 76.863l.186.002a9.747 9.747 0 006.906-2.846l.182-.18.164-.197c1.953-2.357 2.537-5.686 1.735-9.899a96.684 96.684 0 00-.373-1.816c-1.205-5.705-4.028-19.062 2.209-26.596l.027-.032.027-.033a6.042 6.042 0 014.738-2.277h.092l.064.001h.12c1.866 0 3.6.84 4.76 2.304l.026.033.027.033c6.168 7.54 3.254 20.859 2.01 26.546a94.45 94.45 0 00-.4 1.874c-.825 4.215-.26 7.546 1.676 9.911l.162.199.182.181A9.748 9.748 0 0099.637 113l.086-.001c12.626 0 21.58-25.09 27.384-76.704v.003c1.698-15.067.081-25.139-4.944-30.79-3.168-3.56-7.739-5.365-13.584-5.365-3.315 0-7.054.56-11.432 1.713l-.063.017-.063.018A47.494 47.494 0 0184.285 3.77 47.475 47.475 0 0171.56 1.816l-.064-.019-.064-.017C66.983.582 63.19 0 59.837 0z" fill="#1391E6"/><path d="M121.878 35.705c-7.518 66.869-18.863 72.034-22.156 72.025a4.55 4.55 0 01-3.31-1.338c-1.114-1.361-.93-3.768-.582-5.548 1.055-5.337 5.876-22.294-2.702-32.781a11.33 11.33 0 00-8.988-4.3 11.33 11.33 0 00-9.013 4.248c-8.64 10.434-3.977 27.42-2.954 32.761.34 1.783.506 4.193-.616 5.546a4.549 4.549 0 01-3.317 1.318c-3.297-.01-14.603-5.242-21.738-72.155-1.422-13.312-.141-22.288 3.801-26.67 3.582-3.982 9.992-4.573 19.762-1.943a52.731 52.731 0 0014.204 2.17 52.747 52.747 0 0014.216-2.087c9.776-2.574 16.186-1.942 19.748 2.061 3.919 4.407 5.145 13.387 3.645 26.695v-.002z" fill="#fff"/><path d="M75.518 26.406a1.8 1.8 0 01-.8-3.412l17.238-8.558a1.794 1.794 0 012.408.812 1.8 1.8 0 01-.811 2.411l-17.238 8.559c-.257.127-.53.188-.797.188z" fill="#1391E6"/><path d="M92.753 26.406c-.268 0-.54-.06-.797-.188L74.72 17.659a1.8 1.8 0 01-.812-2.41 1.794 1.794 0 012.408-.813l17.238 8.558a1.8 1.8 0 01-.8 3.412z" fill="#1391E6"/></svg>