<svg width="177" height="33" fill="none" xmlns="http://www.w3.org/2000/svg"><path fill-rule="evenodd" clip-rule="evenodd" d="M172.97 1.774c-.366.547-1.558 2.112-5.111 8.43-3.453 6.141-9.24 16.99-11.35 20.701-1.102 1.939.537 2.382 1.097 1.652.245-.32 5.172-8.271 9.752-16.157 3.587-6.174 6.96-12.465 7.701-13.977.505-1.028-1.14-2.253-2.089-.649zm1.448 22.801c-1.448 1.403-5.222 4.785-6.698 6.784-1.576 1.953.679 1.996 1.699.999 1.08-1.058 5.684-5.644 6.8-7.005 1.723-2.101.359-2.923-1.801-.778z" fill="#1391E6"/><path d="M117.853 8.16c-.905-1.6-2.289-2.4-4.152-2.4-1.862 0-3.246.8-4.151 2.4-.905 1.6-1.357 4.347-1.357 8.24s.452 6.64 1.357 8.24c.905 1.6 2.289 2.4 4.151 2.4 1.863 0 3.247-.8 4.152-2.4.905-1.6 1.357-4.347 1.357-8.24s-.452-6.64-1.357-8.24zm4.232 19.68c-1.837 2.373-4.631 3.56-8.384 3.56-3.752 0-6.553-1.187-8.403-3.56-1.849-2.373-2.774-6.187-2.774-11.44 0-5.253.925-9.067 2.774-11.44 1.85-2.373 4.651-3.56 8.403-3.56 3.753 0 6.554 1.187 8.404 3.56 1.849 2.373 2.774 6.187 2.774 11.44 0 5.253-.931 9.067-2.794 11.44zm10.299-15.28c-.373.293-.765.333-1.178.12-.412-.213-.618-.547-.618-1v-1.6c0-1.493.598-2.707 1.796-3.64l4.271-3.28c1.198-.907 2.555-1.36 4.072-1.36h1.198c.612 0 1.137.227 1.577.68.439.453.658.987.658 1.6v24.64c0 .613-.219 1.147-.658 1.6-.44.453-.965.68-1.577.68h-1.198c-.612 0-1.144-.227-1.597-.68-.452-.453-.678-.987-.678-1.6V7.96l-.04-.04-.04.04-5.988 4.6z" stroke="#1391E6" stroke-width="2"/><path d="M37.135 16.556c-.745.224-1.31.528-1.692.912-.384.384-.575.805-.575 1.264 0 .416.167.787.503 1.112.335.325.7.488 1.094.488.308 0 .518-.064.63-.192.112-.128.168-.368.168-.72v-2.768c0-.085-.043-.117-.128-.096zm-.463 5.584c-1.064 0-1.97-.328-2.714-.984-.746-.656-1.118-1.464-1.118-2.424 0-.917.375-1.75 1.126-2.496.75-.747 1.807-1.29 3.17-1.632.084-.021.127-.08.127-.176v-2.016c0-.096-.048-.144-.144-.144h-2.73a.815.815 0 01-.6-.248.818.818 0 01-.247-.6c0-.235.083-.435.248-.6a.815.815 0 01.599-.248h2.73c.096 0 .144-.048.144-.144V9.5c0-.245.09-.459.271-.64a.873.873 0 01.64-.272h.207c.245 0 .458.09.638.272a.877.877 0 01.272.64v.928c0 .096.043.144.128.144h2.523a.84.84 0 01.606.248c.17.165.256.365.256.6a.805.805 0 01-.256.6.841.841 0 01-.606.248h-2.523c-.085 0-.128.048-.128.144v1.728c0 .085.048.128.144.128.17-.01.441-.016.814-.016 1.575 0 2.848.368 3.816 1.104.969.736 1.453 1.627 1.453 2.672 0 2.272-1.224 3.664-3.672 4.176a.884.884 0 01-.703-.136.988.988 0 01-.415-.6l-.016-.048a.82.82 0 01.12-.656.867.867 0 01.55-.384c.714-.17 1.236-.44 1.566-.808.33-.368.495-.845.495-1.432 0-.533-.29-.995-.87-1.384-.58-.39-1.355-.584-2.324-.584-.373 0-.644.005-.814.016-.096 0-.144.048-.144.144v3.2c0 .981-.192 1.661-.575 2.04-.383.379-1.065.568-2.044.568zm8.575-11.504c.575.779 1.075 1.51 1.5 2.192a.829.829 0 01.105.664.815.815 0 01-.391.536.894.894 0 01-.671.088.869.869 0 01-.543-.392 43.6 43.6 0 00-1.405-2.08.859.859 0 01-.16-.64.797.797 0 01.335-.56.89.89 0 01.663-.152c.24.037.428.152.567.344zm10.778 6.144c.298-.277.447-.624.447-1.04 0-.416-.149-.76-.447-1.032-.298-.272-.681-.408-1.15-.408-.468 0-.851.136-1.15.408a1.337 1.337 0 00-.446 1.032c0 .416.149.76.447 1.032.298.272.681.408 1.15.408.468 0 .851-.133 1.15-.4zm-6.467-4.88a.815.815 0 01-.599-.248.818.818 0 01-.247-.6c0-.235.082-.437.247-.608a.802.802 0 01.6-.256h6.562c.096 0 .144-.043.144-.128v-.72c0-.245.09-.459.271-.64a.873.873 0 01.639-.272h.208a.87.87 0 01.638.272.877.877 0 01.272.64v.704c0 .096.042.144.127.144h3.274c.234 0 .434.085.599.256.165.17.247.373.247.608a.818.818 0 01-.247.6.815.815 0 01-.6.248H58.42c-.085 0-.127.048-.127.144v2.896a.69.69 0 00.048.272 5.59 5.59 0 01.367 2.016c0 1.515-.394 2.683-1.182 3.504-.788.821-2.092 1.376-3.912 1.664a.836.836 0 01-.678-.176 1.023 1.023 0 01-.392-.608v-.064a.813.813 0 01.152-.648.88.88 0 01.583-.36c1.16-.181 1.98-.44 2.459-.776.479-.336.788-.819.926-1.448a.07.07 0 01.008-.032.072.072 0 00.008-.032v-.016h-.048c-.543.437-1.235.656-2.076.656-.968 0-1.759-.296-2.371-.888-.612-.592-.918-1.347-.918-2.264 0-.928.311-1.685.934-2.272.623-.587 1.43-.88 2.42-.88.563 0 1.096.123 1.596.368.01 0 .016.003.016.008s.005.008.016.008c.01 0 .016-.005.016-.016v-.912c0-.096-.048-.144-.144-.144h-6.563zm22.435 4.88c.298-.277.447-.624.447-1.04 0-.416-.149-.76-.447-1.032-.298-.272-.681-.408-1.15-.408-.468 0-.851.136-1.15.408a1.337 1.337 0 00-.446 1.032c0 .416.149.76.447 1.032.298.272.681.408 1.15.408.468 0 .851-.133 1.15-.4zm-6.467-4.88a.815.815 0 01-.599-.248.818.818 0 01-.247-.6c0-.235.082-.437.247-.608a.802.802 0 01.6-.256h6.562c.096 0 .144-.043.144-.128v-.72c0-.245.09-.459.271-.64a.873.873 0 01.639-.272h.207c.245 0 .458.09.64.272.18.181.27.395.27.64v.704c0 .096.043.144.128.144h3.274c.234 0 .434.085.599.256.165.17.247.373.247.608a.818.818 0 01-.247.6.815.815 0 01-.6.248h-3.273c-.085 0-.127.048-.127.144v2.896c0 .107.016.197.047.272.245.64.368 1.312.368 2.016 0 1.515-.394 2.683-1.182 3.504-.788.821-2.092 1.376-3.912 1.664a.836.836 0 01-.679-.176 1.023 1.023 0 01-.39-.608v-.064a.813.813 0 01.15-.648.88.88 0 01.584-.36c1.16-.181 1.98-.44 2.459-.776.479-.336.787-.819.926-1.448a.08.08 0 01.008-.032.072.072 0 00.008-.032v-.016H72.6c-.543.437-1.235.656-2.076.656-.969 0-1.759-.296-2.371-.888-.612-.592-.918-1.347-.918-2.264 0-.928.311-1.685.934-2.272.623-.587 1.429-.88 2.419-.88.564 0 1.097.123 1.597.368.01 0 .016.003.016.008s.005.008.016.008c.01 0 .016-.005.016-.016v-.912c0-.096-.048-.144-.144-.144h-6.563zm18.172 2.528c-.799.864-1.198 1.904-1.198 3.12 0 .715.12 1.267.36 1.656.239.39.529.584.87.584.436 0 .936-.299 1.5-.896.054-.064.06-.139.017-.224a.36.36 0 01-.064-.128 95.921 95.921 0 01-1.358-4.064c-.02-.096-.064-.112-.127-.048zm4.183-1.616c-.83 0-1.586.123-2.267.368-.085.032-.117.096-.096.192a96.1 96.1 0 001.086 3.456c.021.064.058.059.112-.016.638-1.099 1.219-2.379 1.74-3.84a.121.121 0 00-.008-.096c-.016-.032-.04-.048-.072-.048a5.475 5.475 0 00-.495-.016zm-4.359 8.96c-.841 0-1.54-.37-2.1-1.112-.559-.741-.838-1.779-.838-3.112 0-1.056.218-2.035.655-2.936a6.42 6.42 0 011.836-2.28c.074-.053.106-.117.096-.192a64.293 64.293 0 01-.463-1.792.895.895 0 01.12-.688.804.804 0 01.566-.384l.144-.032a.97.97 0 01.687.128.833.833 0 01.399.56c.032.15.085.365.16.648.074.283.122.477.143.584.021.075.075.101.16.08a8.214 8.214 0 012.794-.464c.426 0 .804.021 1.134.064.096.021.154-.016.176-.112.085-.288.212-.741.383-1.36a.943.943 0 01.423-.576.895.895 0 01.695-.128l.127.032a.865.865 0 01.567.392c.133.208.168.43.104.664a23.836 23.836 0 01-.4 1.488c-.02.085.006.144.08.176 1.055.459 1.88 1.13 2.476 2.016.596.885.894 1.904.894 3.056 0 1.547-.367 2.805-1.102 3.776-.734.97-1.794 1.627-3.178 1.968a.846.846 0 01-.694-.112.947.947 0 01-.423-.592l-.032-.112a.765.765 0 01.104-.648.923.923 0 01.55-.408c1.832-.523 2.747-1.813 2.747-3.872 0-.683-.173-1.296-.519-1.84-.346-.544-.833-.97-1.461-1.28-.064-.032-.117-.005-.16.08-.99 2.763-2.094 4.84-3.313 6.232-1.219 1.392-2.398 2.088-3.537 2.088z" fill="#1391E6"/><path fill-rule="evenodd" clip-rule="evenodd" d="M4.03 1.774c.365.547 1.558 2.112 5.11 8.43 3.454 6.141 9.24 16.99 11.35 20.701 1.103 1.939-.536 2.382-1.096 1.652-.245-.32-5.172-8.271-9.753-16.157-3.587-6.174-6.959-12.465-7.7-13.977C1.435 1.395 3.08.17 4.03 1.774zM2.582 24.575c1.448 1.403 5.222 4.785 6.697 6.784 1.577 1.953-.678 1.996-1.698.999-1.08-1.058-5.684-5.644-6.8-7.005-1.723-2.101-.36-2.923 1.8-.778z" fill="#1391E6"/></svg>