<svg width="182" height="33" fill="none" xmlns="http://www.w3.org/2000/svg"><path fill-rule="evenodd" clip-rule="evenodd" d="M177.964 1.774c-.366.547-1.56 2.112-5.118 8.43-3.458 6.141-9.252 16.99-11.365 20.701-1.104 1.939.537 2.382 1.098 1.652.245-.32 5.179-8.271 9.766-16.157 3.592-6.174 6.969-12.465 7.711-13.977.506-1.028-1.141-2.253-2.092-.649zm1.451 22.801c-1.45 1.403-5.229 4.785-6.707 6.784-1.578 1.953.679 1.996 1.7.999 1.082-1.058 5.692-5.644 6.81-7.005 1.726-2.101.36-2.923-1.803-.778z" fill="#1391E6"/><path d="M118.015 8.16c-.906-1.6-2.292-2.4-4.158-2.4-1.865 0-3.251.8-4.157 2.4-.906 1.6-1.359 4.347-1.359 8.24s.453 6.64 1.359 8.24c.906 1.6 2.292 2.4 4.157 2.4 1.866 0 3.252-.8 4.158-2.4.906-1.6 1.359-4.347 1.359-8.24s-.453-6.64-1.359-8.24zm4.237 19.68c-1.839 2.373-4.637 3.56-8.395 3.56-3.757 0-6.562-1.187-8.414-3.56-1.852-2.373-2.778-6.187-2.778-11.44 0-5.253.926-9.067 2.778-11.44 1.852-2.373 4.657-3.56 8.414-3.56 3.758 0 6.563 1.187 8.415 3.56 1.852 2.373 2.778 6.187 2.778 11.44 0 5.253-.932 9.067-2.798 11.44zm26.783-17.92c0 2.507-.793 4.913-2.378 7.22-1.586 2.307-4.657 5.367-9.215 9.18-.053.053-.08.093-.08.12 0 .027.014.04.04.04h9.434c.613 0 1.146.22 1.599.66.453.44.68.967.68 1.58 0 .613-.227 1.147-.68 1.6-.453.453-.986.68-1.599.68h-14.67c-.613 0-1.14-.227-1.579-.68a2.222 2.222 0 01-.66-1.6c0-1.52.573-2.733 1.719-3.64 4.61-3.68 7.702-6.547 9.274-8.6 1.573-2.053 2.359-4.053 2.359-6 0-2.96-1.586-4.44-4.757-4.44-1.626 0-3.598.453-5.917 1.36-.506.213-.979.173-1.419-.12-.439-.293-.659-.693-.659-1.2V5.4c0-.693.193-1.327.579-1.9a2.74 2.74 0 011.539-1.14c2.266-.64 4.491-.96 6.676-.96 3.118 0 5.517.747 7.196 2.24 1.679 1.493 2.518 3.587 2.518 6.28z" stroke="#1391E6" stroke-width="2"/><path d="M37.186 16.556c-.746.224-1.311.528-1.695.912-.384.384-.575.805-.575 1.264 0 .416.167.787.503 1.112.336.325.701.488 1.096.488.309 0 .52-.064.631-.192.112-.128.168-.368.168-.72v-2.768c0-.085-.043-.117-.128-.096zm-.464 5.584c-1.066 0-1.972-.328-2.718-.984-.746-.656-1.12-1.464-1.12-2.424 0-.917.377-1.75 1.128-2.496.752-.747 1.81-1.29 3.174-1.632.085-.021.128-.08.128-.176v-2.016c0-.096-.048-.144-.144-.144h-2.734a.817.817 0 01-.6-.248.818.818 0 01-.248-.6c0-.235.083-.435.248-.6a.816.816 0 01.6-.248h2.734c.096 0 .144-.048.144-.144V9.5c0-.245.09-.459.272-.64a.875.875 0 01.64-.272h.207c.245 0 .459.09.64.272a.876.876 0 01.272.64v.928c0 .096.042.144.128.144h2.526c.234 0 .437.083.608.248.17.165.255.365.255.6a.805.805 0 01-.255.6.843.843 0 01-.608.248h-2.526c-.086 0-.128.048-.128.144v1.728c0 .085.048.128.144.128.17-.01.442-.016.815-.016 1.578 0 2.852.368 3.822 1.104.97.736 1.455 1.627 1.455 2.672 0 2.272-1.226 3.664-3.678 4.176a.886.886 0 01-.703-.136.988.988 0 01-.416-.6l-.016-.048a.818.818 0 01.12-.656.868.868 0 01.551-.384c.715-.17 1.237-.44 1.567-.808.33-.368.496-.845.496-1.432 0-.533-.29-.995-.871-1.384-.581-.39-1.357-.584-2.327-.584-.373 0-.645.005-.815.016-.096 0-.144.048-.144.144v3.2c0 .981-.192 1.661-.576 2.04-.384.379-1.066.568-2.047.568zm8.587-11.504c.576.779 1.077 1.51 1.503 2.192a.827.827 0 01.104.664.814.814 0 01-.392.536.896.896 0 01-.672.088.87.87 0 01-.543-.392 42.77 42.77 0 00-1.407-2.08.858.858 0 01-.16-.64.797.797 0 01.336-.56.892.892 0 01.663-.152.83.83 0 01.568.344zm10.793 6.144a1.36 1.36 0 00.448-1.04c0-.416-.15-.76-.448-1.032-.298-.272-.682-.408-1.151-.408-.47 0-.853.136-1.151.408a1.336 1.336 0 00-.448 1.032c0 .416.149.76.448 1.032.298.272.682.408 1.15.408.47 0 .853-.133 1.152-.4zm-6.476-4.88a.817.817 0 01-.6-.248.818.818 0 01-.247-.6c0-.235.082-.437.247-.608a.804.804 0 01.6-.256h6.572c.096 0 .144-.043.144-.128v-.72c0-.245.09-.459.272-.64a.875.875 0 01.64-.272h.207c.245 0 .459.09.64.272a.876.876 0 01.272.64v.704c0 .096.042.144.128.144h3.277c.235 0 .435.085.6.256.165.17.248.373.248.608a.818.818 0 01-.248.6.817.817 0 01-.6.248h-3.277c-.086 0-.128.048-.128.144v2.896a.69.69 0 00.047.272 5.57 5.57 0 01.368 2.016c0 1.515-.394 2.683-1.183 3.504-.789.821-2.095 1.376-3.917 1.664a.838.838 0 01-.68-.176 1.023 1.023 0 01-.392-.608v-.064a.812.812 0 01.152-.648.882.882 0 01.584-.36c1.162-.181 1.983-.44 2.462-.776.48-.336.789-.819.928-1.448a.07.07 0 01.008-.032.072.072 0 00.008-.032v-.016h-.048c-.544.437-1.237.656-2.08.656-.97 0-1.76-.296-2.374-.888-.612-.592-.919-1.347-.919-2.264 0-.928.312-1.685.935-2.272.624-.587 1.431-.88 2.423-.88.565 0 1.098.123 1.599.368.01 0 .016.003.016.008s.005.008.016.008c.01 0 .016-.005.016-.016v-.912c0-.096-.048-.144-.144-.144h-6.572zm22.466 4.88a1.36 1.36 0 00.448-1.04c0-.416-.15-.76-.448-1.032-.299-.272-.682-.408-1.151-.408-.47 0-.853.136-1.152.408a1.336 1.336 0 00-.447 1.032c0 .416.149.76.447 1.032.299.272.683.408 1.151.408.47 0 .853-.133 1.152-.4zm-6.476-4.88a.817.817 0 01-.6-.248.818.818 0 01-.248-.6c0-.235.083-.437.248-.608a.804.804 0 01.6-.256h6.572c.096 0 .144-.043.144-.128v-.72c0-.245.09-.459.272-.64a.875.875 0 01.64-.272h.207c.245 0 .458.09.64.272a.876.876 0 01.271.64v.704c0 .096.043.144.128.144h3.278c.235 0 .435.085.6.256.165.17.248.373.248.608a.818.818 0 01-.248.6.817.817 0 01-.6.248H74.49c-.085 0-.128.048-.128.144v2.896a.69.69 0 00.048.272 5.57 5.57 0 01.368 2.016c0 1.515-.394 2.683-1.183 3.504-.789.821-2.095 1.376-3.918 1.664a.838.838 0 01-.68-.176 1.023 1.023 0 01-.391-.608v-.064a.812.812 0 01.152-.648.882.882 0 01.584-.36c1.162-.181 1.982-.44 2.462-.776.48-.336.789-.819.927-1.448a.08.08 0 01.008-.032.072.072 0 00.008-.032v-.016H72.7c-.543.437-1.236.656-2.078.656-.97 0-1.762-.296-2.375-.888-.613-.592-.92-1.347-.92-2.264 0-.928.313-1.685.936-2.272.624-.587 1.431-.88 2.423-.88.565 0 1.098.123 1.599.368.01 0 .016.003.016.008s.005.008.016.008c.01 0 .016-.005.016-.016v-.912c0-.096-.048-.144-.144-.144h-6.572zm18.196 2.528c-.8.864-1.199 1.904-1.199 3.12 0 .715.12 1.267.36 1.656.24.39.53.584.871.584.437 0 .938-.299 1.503-.896.054-.064.059-.139.016-.224a.362.362 0 01-.064-.128 95.769 95.769 0 01-1.359-4.064c-.021-.096-.064-.112-.128-.048zm4.19-1.616c-.832 0-1.589.123-2.27.368-.086.032-.118.096-.097.192a98.345 98.345 0 001.087 3.456c.022.064.06.059.112-.016.64-1.099 1.221-2.379 1.743-3.84a.121.121 0 00-.008-.096c-.016-.032-.04-.048-.072-.048a5.49 5.49 0 00-.495-.016zm-4.365 8.96c-.843 0-1.544-.37-2.103-1.112-.56-.741-.84-1.779-.84-3.112a6.64 6.64 0 01.656-2.936 6.422 6.422 0 011.839-2.28c.074-.053.106-.117.096-.192a64.132 64.132 0 01-.464-1.792.895.895 0 01.12-.688.806.806 0 01.567-.384l.145-.032a.971.971 0 01.687.128.833.833 0 01.4.56c.032.15.085.365.16.648.074.283.122.477.144.584.02.075.074.101.16.08a8.235 8.235 0 012.798-.464c.426 0 .805.021 1.135.064.096.021.154-.016.176-.112.085-.288.213-.741.384-1.36a.943.943 0 01.423-.576.897.897 0 01.696-.128l.128.032a.867.867 0 01.567.392c.134.208.168.43.104.664a23 23 0 01-.4 1.488c-.02.085.006.144.08.176 1.056.459 1.882 1.13 2.479 2.016.597.885.895 1.904.895 3.056 0 1.547-.367 2.805-1.103 3.776-.735.97-1.796 1.627-3.182 1.968a.848.848 0 01-.695-.112.947.947 0 01-.424-.592l-.032-.112a.765.765 0 01.104-.648.925.925 0 01.551-.408c1.834-.523 2.75-1.813 2.75-3.872 0-.683-.172-1.296-.519-1.84-.346-.544-.834-.97-1.463-1.28-.064-.032-.117-.005-.16.08-.991 2.763-2.097 4.84-3.318 6.232-1.22 1.392-2.4 2.088-3.541 2.088z" fill="#1391E6"/><path fill-rule="evenodd" clip-rule="evenodd" d="M4.036 1.774c.366.547 1.56 2.112 5.118 8.43 3.458 6.141 9.252 16.99 11.365 20.701 1.104 1.939-.538 2.382-1.098 1.652-.245-.32-5.18-8.271-9.766-16.157C6.063 10.226 2.686 3.935 1.944 2.423 1.438 1.395 3.085.17 4.036 1.774zM2.585 24.575c1.45 1.403 5.23 4.785 6.707 6.784 1.579 1.953-.679 1.996-1.7.999C6.51 31.3 1.9 26.714.782 25.353c-1.726-2.101-.36-2.923 1.803-.778z" fill="#1391E6"/></svg>