<svg width="182" height="33" fill="none" xmlns="http://www.w3.org/2000/svg"><path fill-rule="evenodd" clip-rule="evenodd" d="M177.96 1.774c-.366.547-1.561 2.112-5.122 8.43-3.461 6.141-9.26 16.99-11.375 20.701-1.105 1.939.538 2.382 1.099 1.652.245-.32 5.184-8.271 9.774-16.157 3.595-6.174 6.975-12.465 7.718-13.977.507-1.028-1.142-2.253-2.094-.649zm1.453 22.801c-1.452 1.403-5.234 4.785-6.713 6.784-1.58 1.953.68 1.996 1.702.999 1.082-1.058 5.696-5.644 6.815-7.005 1.728-2.101.36-2.923-1.804-.778z" fill="#1391E6"/><path d="M118.119 8.16c-.907-1.6-2.294-2.4-4.161-2.4-1.868 0-3.255.8-4.161 2.4-.907 1.6-1.361 4.347-1.361 8.24s.454 6.64 1.361 8.24c.906 1.6 2.293 2.4 4.161 2.4 1.867 0 3.254-.8 4.161-2.4.907-1.6 1.36-4.347 1.36-8.24s-.453-6.64-1.36-8.24zm4.241 19.68c-1.841 2.373-4.641 3.56-8.402 3.56-3.761 0-6.569-1.187-8.422-3.56-1.854-2.373-2.781-6.187-2.781-11.44 0-5.253.927-9.067 2.781-11.44 1.853-2.373 4.661-3.56 8.422-3.56 3.761 0 6.568 1.187 8.422 3.56 1.853 2.373 2.78 6.187 2.78 11.44 0 5.253-.933 9.067-2.8 11.44zm9.882-21.52c-.613 0-1.147-.22-1.6-.66-.454-.44-.68-.967-.68-1.58 0-.613.226-1.147.68-1.6.453-.453.987-.68 1.6-.68h14.204c.613 0 1.14.227 1.58.68.44.453.66.987.66 1.6 0 1.52-.56 2.773-1.68 3.76l-6.482 5.88c-.027.027-.04.053-.04.08 0 .027.013.04.04.04h.64c2.454 0 4.388.7 5.802 2.1 1.413 1.4 2.12 3.353 2.12 5.86 0 3.067-.933 5.433-2.801 7.1-1.867 1.667-4.534 2.5-8.001 2.5a24.5 24.5 0 01-5.962-.72c-.64-.16-1.16-.52-1.56-1.08-.4-.56-.6-1.187-.6-1.88v-.44c0-.533.22-.953.66-1.26.44-.307.927-.38 1.46-.22 2.161.72 4.081 1.08 5.761 1.08 1.761 0 3.121-.427 4.081-1.28.961-.853 1.441-2.093 1.441-3.72 0-1.493-.54-2.567-1.621-3.22-1.08-.653-2.98-.98-5.701-.98h-.44c-.534 0-.994-.2-1.38-.6-.387-.4-.581-.867-.581-1.4 0-1.333.481-2.44 1.441-3.32l6.521-5.92c.027-.027.04-.053.04-.08 0-.027-.013-.04-.04-.04h-9.562z" stroke="#1391E6" stroke-width="2"/><path d="M37.219 16.556c-.747.224-1.313.528-1.697.912-.384.384-.576.805-.576 1.264 0 .416.168.787.504 1.112.336.325.702.488 1.096.488.31 0 .52-.064.633-.192.112-.128.168-.368.168-.72v-2.768c0-.085-.043-.117-.128-.096zm-.465 5.584c-1.066 0-1.973-.328-2.72-.984-.747-.656-1.12-1.464-1.12-2.424 0-.917.376-1.75 1.128-2.496.752-.747 1.811-1.29 3.177-1.632.085-.021.128-.08.128-.176v-2.016c0-.096-.048-.144-.144-.144h-2.737a.818.818 0 01-.6-.248.817.817 0 01-.248-.6c0-.235.082-.435.248-.6a.817.817 0 01.6-.248h2.737c.096 0 .144-.048.144-.144V9.5c0-.245.09-.459.272-.64a.876.876 0 01.64-.272h.208c.245 0 .459.09.64.272a.875.875 0 01.272.64v.928c0 .096.043.144.128.144h2.529c.234 0 .437.083.608.248.17.165.256.365.256.6a.804.804 0 01-.256.6.844.844 0 01-.608.248h-2.529c-.085 0-.128.048-.128.144v1.728c0 .085.048.128.144.128.17-.01.443-.016.816-.016 1.58 0 2.854.368 3.825 1.104.971.736 1.457 1.627 1.457 2.672 0 2.272-1.227 3.664-3.681 4.176a.887.887 0 01-.704-.136.987.987 0 01-.416-.6l-.017-.048a.818.818 0 01.12-.656.869.869 0 01.553-.384c.715-.17 1.237-.44 1.568-.808.33-.368.496-.845.496-1.432 0-.533-.29-.995-.872-1.384-.581-.39-1.358-.584-2.329-.584-.373 0-.645.005-.816.016-.096 0-.144.048-.144.144v3.2c0 .981-.192 1.661-.576 2.04-.384.379-1.067.568-2.048.568zm8.595-11.504a34.17 34.17 0 011.504 2.192.827.827 0 01.104.664.815.815 0 01-.392.536.898.898 0 01-.672.088.87.87 0 01-.544-.392 42.68 42.68 0 00-1.409-2.08.858.858 0 01-.16-.64.797.797 0 01.336-.56.893.893 0 01.665-.152.83.83 0 01.568.344zM56.15 16.78a1.36 1.36 0 00.448-1.04c0-.416-.149-.76-.448-1.032-.299-.272-.683-.408-1.152-.408-.47 0-.854.136-1.152.408a1.335 1.335 0 00-.448 1.032c0 .416.149.76.448 1.032.298.272.682.408 1.152.408.47 0 .853-.133 1.152-.4zm-6.48-4.88a.818.818 0 01-.6-.248.817.817 0 01-.249-.6c0-.235.083-.437.248-.608a.805.805 0 01.6-.256h6.578c.096 0 .144-.043.144-.128v-.72c0-.245.091-.459.272-.64a.876.876 0 01.64-.272h.209c.245 0 .458.09.64.272a.876.876 0 01.272.64v.704c0 .096.043.144.128.144h3.28c.235 0 .435.085.6.256a.84.84 0 01.249.608.818.818 0 01-.248.6.818.818 0 01-.6.248h-3.281c-.085 0-.128.048-.128.144v2.896a.69.69 0 00.048.272c.245.64.368 1.312.368 2.016 0 1.515-.395 2.683-1.184 3.504-.79.821-2.097 1.376-3.921 1.664a.839.839 0 01-.68-.176 1.022 1.022 0 01-.393-.608v-.064a.812.812 0 01.152-.648.883.883 0 01.585-.36c1.163-.181 1.984-.44 2.464-.776s.79-.819.928-1.448a.08.08 0 01.008-.032.072.072 0 00.008-.032v-.016h-.048c-.544.437-1.237.656-2.08.656-.971 0-1.763-.296-2.377-.888-.613-.592-.92-1.347-.92-2.264 0-.928.312-1.685.936-2.272.624-.587 1.433-.88 2.425-.88.565 0 1.099.123 1.6.368.01 0 .016.003.016.008s.006.008.016.008c.011 0 .016-.005.016-.016v-.912c0-.096-.048-.144-.144-.144H49.67zm22.485 4.88a1.36 1.36 0 00.448-1.04c0-.416-.15-.76-.448-1.032-.299-.272-.683-.408-1.152-.408-.47 0-.854.136-1.152.408a1.335 1.335 0 00-.448 1.032c0 .416.149.76.448 1.032.298.272.682.408 1.152.408.47 0 .853-.133 1.152-.4zm-6.481-4.88a.818.818 0 01-.6-.248.817.817 0 01-.249-.6c0-.235.083-.437.248-.608a.805.805 0 01.6-.256h6.578c.096 0 .144-.043.144-.128v-.72c0-.245.09-.459.272-.64a.876.876 0 01.64-.272h.209c.245 0 .458.09.64.272a.876.876 0 01.272.64v.704c0 .096.042.144.128.144h3.28c.235 0 .435.085.6.256a.84.84 0 01.249.608.818.818 0 01-.248.6.818.818 0 01-.6.248h-3.281c-.086 0-.128.048-.128.144v2.896a.69.69 0 00.048.272c.245.64.368 1.312.368 2.016 0 1.515-.395 2.683-1.184 3.504-.79.821-2.097 1.376-3.921 1.664a.839.839 0 01-.68-.176 1.022 1.022 0 01-.393-.608v-.064a.812.812 0 01.152-.648.883.883 0 01.585-.36c1.162-.181 1.984-.44 2.464-.776s.79-.819.928-1.448a.07.07 0 01.008-.032.072.072 0 00.008-.032v-.016h-.048c-.544.437-1.237.656-2.08.656-.971 0-1.763-.296-2.377-.888-.613-.592-.92-1.347-.92-2.264 0-.928.312-1.685.936-2.272.624-.587 1.432-.88 2.425-.88.565 0 1.099.123 1.6.368.01 0 .016.003.016.008s.005.008.016.008c.01 0 .016-.005.016-.016v-.912c0-.096-.048-.144-.144-.144h-6.578zm18.212 2.528c-.8.864-1.2 1.904-1.2 3.12 0 .715.12 1.267.36 1.656.24.39.53.584.872.584.437 0 .939-.299 1.504-.896.054-.064.059-.139.016-.224a.36.36 0 01-.064-.128 95.857 95.857 0 01-1.36-4.064c-.021-.096-.064-.112-.128-.048zm4.193-1.616c-.832 0-1.59.123-2.273.368-.085.032-.117.096-.096.192a96.5 96.5 0 001.089 3.456c.021.064.058.059.112-.016.64-1.099 1.221-2.379 1.744-3.84a.121.121 0 00-.008-.096c-.016-.032-.04-.048-.072-.048a5.498 5.498 0 00-.496-.016zm-4.37 8.96c-.842 0-1.543-.37-2.104-1.112-.56-.741-.84-1.779-.84-3.112a6.64 6.64 0 01.656-2.936 6.422 6.422 0 011.84-2.28c.076-.053.108-.117.097-.192a64.531 64.531 0 01-.464-1.792.894.894 0 01.12-.688.806.806 0 01.568-.384l.144-.032a.973.973 0 01.688.128.833.833 0 01.4.56c.032.15.086.365.16.648.075.283.123.477.144.584.022.075.075.101.16.08a8.25 8.25 0 012.801-.464c.427 0 .806.021 1.136.064.096.021.155-.016.176-.112.086-.288.214-.741.384-1.36a.943.943 0 01.424-.576.899.899 0 01.697-.128l.128.032a.868.868 0 01.568.392c.133.208.168.43.104.664-.15.619-.283 1.115-.4 1.488-.022.085.005.144.08.176 1.056.459 1.883 1.13 2.48 2.016.598.885.897 1.904.897 3.056 0 1.547-.368 2.805-1.105 3.776-.736.97-1.797 1.627-3.184 1.968a.85.85 0 01-.697-.112.947.947 0 01-.424-.592l-.032-.112a.764.764 0 01.104-.648.925.925 0 01.552-.408c1.836-.523 2.753-1.813 2.753-3.872a3.35 3.35 0 00-.52-1.84c-.347-.544-.835-.97-1.464-1.28-.064-.032-.118-.005-.16.08-.993 2.763-2.1 4.84-3.321 6.232-1.222 1.392-2.403 2.088-3.545 2.088z" fill="#1391E6"/><path fill-rule="evenodd" clip-rule="evenodd" d="M4.039 1.774c.366.547 1.562 2.112 5.123 8.43 3.46 6.141 9.26 16.99 11.375 20.701 1.105 1.939-.538 2.382-1.099 1.652-.246-.32-5.184-8.271-9.775-16.157C6.068 10.226 2.688 3.935 1.945 2.423 1.44 1.395 3.088.17 4.04 1.774zM2.588 24.575c1.451 1.403 5.234 4.785 6.712 6.784 1.58 1.953-.68 1.996-1.702.999C6.516 31.3 1.902 26.714.783 25.353c-1.727-2.101-.36-2.923 1.805-.778z" fill="#1391E6"/></svg>