<svg width="375" height="88" viewBox="0 0 375 88" fill="none" xmlns="http://www.w3.org/2000/svg">
<path d="M238.692 56.2226C217.502 58.8289 203.148 59.844 187.49 59.844C171.837 59.844 157.483 58.8289 136.306 56.2243C97.1611 51.3897 60.8645 54.4943 34.1205 64.9707C19.3726 70.7478 7.88072 78.5723 0 88H375C367.12 78.5727 355.63 70.7485 340.884 64.972C314.143 54.4943 277.84 51.3931 238.692 56.2226Z" fill="#DFF1FD"/>
<path d="M201.909 45.4027C200.249 46.3566 198.092 46.127 196.672 44.7141C194.976 43.0271 194.976 40.2914 196.671 38.6038C201.721 33.5754 201.72 25.395 196.668 20.368C194.221 17.933 190.968 16.5921 187.507 16.5927C184.048 16.5931 180.794 17.9348 178.348 20.3709C173.297 25.3993 173.299 33.5797 178.35 38.6064C180.046 40.2935 180.046 43.0293 178.351 44.7166C176.656 46.4035 173.907 46.405 172.212 44.7176C168.125 40.6509 165.874 35.243 165.873 29.4908C165.872 23.7381 168.122 18.3298 172.208 14.2617C176.293 10.1929 181.726 7.95246 187.506 7.95147C193.285 7.95017 198.719 10.1897 202.806 14.2567C211.243 22.6523 211.245 36.3151 202.81 44.7132C202.535 44.9877 202.231 45.2175 201.909 45.4027Z" fill="#DFF1FD"/>
<path d="M16.8843 49.3471C17.435 51.2448 19.4368 53.2392 21.3345 53.7899L22.6145 54.162C24.5121 54.7052 24.5121 55.6057 22.6145 56.1489L21.3345 56.521C19.4368 57.0716 17.435 59.066 16.8843 60.9637L16.5122 62.2511C15.969 64.1488 15.0685 64.1488 14.5253 62.2511L14.1532 60.9637C13.6099 59.066 11.6081 57.0716 9.71044 56.521L8.423 56.1489C6.52534 55.6057 6.52534 54.7052 8.423 54.162L9.71044 53.7899C11.6081 53.2392 13.6099 51.2448 14.1532 49.3471L14.5253 48.0597C15.0685 46.1621 15.969 46.1621 16.5122 48.0597L16.8843 49.3471Z" fill="#DFF1FD"/>
<path d="M39.6931 17.3922C40.8168 21.2619 44.8949 25.3475 48.7646 26.4638L51.3916 27.2153C55.2613 28.3391 55.2613 30.1698 51.3916 31.286L48.7646 32.0377C44.8949 33.1539 40.8168 37.2395 39.6931 41.1091L38.9415 43.7287C37.8252 47.6058 35.9945 47.6058 34.8783 43.7287L34.1192 41.1091C33.003 37.2395 28.9174 33.1539 25.0477 32.0377L22.4282 31.286C18.5584 30.1698 18.5584 28.3391 22.4282 27.2153L25.0477 26.4638C28.9174 25.3475 33.003 21.2619 34.1192 17.3922L34.8783 14.7728C35.9945 10.8956 37.8252 10.8956 38.9415 14.7728L39.6931 17.3922Z" fill="#DFF1FD"/>
<path d="M349.683 41.6657C348.938 44.232 346.233 46.9415 343.667 47.6817L341.925 48.1801C339.358 48.9254 339.358 50.1395 341.925 50.8797L343.667 51.3783C346.233 52.1185 348.938 54.828 349.683 57.3942L350.181 59.1315C350.922 61.7027 352.136 61.7027 352.876 59.1315L353.379 57.3942C354.12 54.828 356.829 52.1185 359.396 51.3783L361.133 50.8797C363.699 50.1395 363.699 48.9254 361.133 48.1801L359.396 47.6817C356.829 46.9415 354.12 44.232 353.379 41.6657L352.876 39.9285C352.136 37.3572 350.922 37.3572 350.181 39.9285L349.683 41.6657Z" fill="#DFF1FD"/>
</svg>
