<svg width="556" height="309" fill="none" xmlns="http://www.w3.org/2000/svg"><path d="M368.297 281.821C-9.336 386.709-28.233 159.224 22.504 86.887c50.738-72.338 163.986-43.615 217.37-33.222 53.384 10.393 128.423-18.89 128.423-18.89S433.667.526 475.884 5.494c42.216 4.968 73.804 28.047 79.531 74.08 6.771 54.425-44.595 163.042-187.118 202.248zM11.155 52.81c.621 2.03 2.88 4.163 5.022 4.752l1.444.398c2.142.581 2.142 1.544 0 2.125l-1.444.398c-2.142.59-4.4 2.723-5.022 4.753l-.42 1.377c-.613 2.03-1.63 2.03-2.242 0l-.42-1.377c-.613-2.03-2.873-4.164-5.014-4.753l-1.453-.398c-2.141-.58-2.141-1.544 0-2.125l1.453-.398c2.141-.59 4.4-2.722 5.014-4.752l.42-1.377c.613-2.03 1.629-2.03 2.242 0l.42 1.377zm25.74-36.062c1.268 4.256 5.87 8.748 10.237 9.976l2.964.826c4.367 1.236 4.367 3.25 0 4.477l-2.964.826c-4.367 1.228-8.97 5.72-10.237 9.976l-.849 2.88c-1.26 4.264-3.325 4.264-4.585 0l-.857-2.88c-1.26-4.255-5.87-8.748-10.237-9.976l-2.956-.826c-4.367-1.228-4.367-3.24 0-4.477l2.956-.826c4.367-1.227 8.978-5.72 10.237-9.976l.857-2.88c1.26-4.264 3.326-4.264 4.585 0l.849 2.88z" fill="#DFF1FD"/><path d="M293.932 41.747c-1.874 0-3.588-1.22-4.097-3.071-.607-2.21.737-4.482 3.001-5.075 6.747-1.765 10.764-8.559 8.955-15.144-.876-3.19-2.973-5.856-5.903-7.507a12.855 12.855 0 00-9.613-1.233c-6.747 1.765-10.764 8.559-8.955 15.144.607 2.21-.736 4.482-3 5.074-2.264.592-4.593-.718-5.199-2.928-1.464-5.328-.714-10.893 2.111-15.67 2.825-4.777 7.386-8.195 12.844-9.623 5.459-1.43 11.16-.697 16.055 2.06s8.396 7.21 9.859 12.537c3.022 10.998-3.688 22.345-14.956 25.293a4.341 4.341 0 01-1.102.143z" fill="#DFF1FD"/></svg>