<svg width="375" height="32" fill="none" xmlns="http://www.w3.org/2000/svg"><g clip-path="url(#clip0_37_2093)"><path d="M1279.77 32H0V6.716c5.224 3.701 10.626 7.529 20.97 7.529 10.563 0 15.912-3.693 21.086-7.265C47.255 3.39 52.166 0 62.236 0c10.071 0 14.983 3.39 20.182 6.98 5.174 3.572 10.525 7.265 21.089 7.265 10.563 0 15.914-3.693 21.088-7.265 5.2-3.59 10.111-6.98 20.182-6.98 10.072 0 14.982 3.39 20.181 6.98 5.174 3.572 10.524 7.265 21.087 7.265 10.562 0 15.912-3.693 21.085-7.265C212.329 3.39 217.239 0 227.31 0c10.072 0 14.983 3.39 20.183 6.98 5.174 3.572 10.524 7.265 21.088 7.265 10.564 0 15.914-3.693 21.088-7.265C294.869 3.39 299.78 0 309.852 0c10.071 0 14.982 3.39 20.181 6.98 5.174 3.572 10.523 7.265 21.086 7.265 10.562 0 15.912-3.693 21.085-7.265 5.199-3.59 10.11-6.98 20.18-6.98 10.072 0 14.984 3.39 20.184 6.98 5.174 3.572 10.523 7.265 21.087 7.265s15.914-3.693 21.088-7.265c5.2-3.59 10.112-6.98 20.184-6.98 10.07 0 14.981 3.39 20.181 6.98 5.173 3.572 10.523 7.265 21.086 7.265 10.561 0 15.911-3.693 21.084-7.265 5.199-3.59 10.11-6.98 20.18-6.98 10.072 0 14.984 3.39 20.184 6.98 5.174 3.572 10.524 7.265 21.088 7.265 10.564 0 15.913-3.693 21.087-7.265C625.017 3.39 629.93 0 640.001 0c10.071 0 14.982 3.39 20.181 6.98 5.173 3.572 10.523 7.265 21.086 7.265 10.562 0 15.911-3.693 21.084-7.265 5.2-3.59 10.111-6.98 20.181-6.98 10.072 0 14.983 3.39 20.183 6.98 5.174 3.572 10.525 7.265 21.088 7.265 10.564 0 15.915-3.693 21.088-7.265 5.2-3.59 10.112-6.98 20.183-6.98s14.982 3.39 20.181 6.98c5.174 3.572 10.524 7.265 21.086 7.265s15.911-3.693 21.085-7.265c5.2-3.59 10.11-6.98 20.181-6.98 10.071 0 14.982 3.39 20.182 6.98 5.174 3.572 10.525 7.265 21.089 7.265 10.564 0 15.914-3.693 21.088-7.265C955.167 3.39 960.078 0 970.15 0c10.071 0 14.981 3.39 20.18 6.98 5.174 3.572 10.52 7.265 21.09 7.265 10.56 0 15.91-3.693 21.08-7.265 5.2-3.59 10.11-6.98 20.18-6.98s14.99 3.39 20.19 6.98c5.17 3.572 10.52 7.265 21.08 7.265 10.57 0 15.92-3.693 21.09-7.265 5.2-3.59 10.11-6.98 20.18-6.98s14.99 3.39 20.18 6.98c5.18 3.572 10.53 7.265 21.09 7.265s15.91-3.693 21.09-7.265c5.2-3.59 10.11-6.98 20.18-6.98s14.98 3.39 20.18 6.98c5.17 3.572 10.52 7.265 21.09 7.265 10.34 0 15.75-3.828 20.97-7.53L1279.77 32z" fill="#DFF1FD"/></g><defs><clipPath id="clip0_37_2093"><path fill="#fff" d="M0 0h375v32H0z"/></clipPath></defs></svg>