<svg width="270" height="32" fill="none" xmlns="http://www.w3.org/2000/svg"><path d="M48.445 5.579h4.544c2.652.02 3.902 1.565 3.75 4.638-.114 1.205-.265 2.62-.454 4.246a23.24 23.24 0 012.47 1.025c.095-.864.19-2.028.285-3.494.076-1.325.69-1.988 1.847-1.988 1.306.04 1.94.703 1.902 1.988-.132 2.168-.274 3.925-.426 5.27l1.136.694c1.383.683 1.8 1.888 1.25 3.614-.644 1.226-1.515 1.507-2.612.844l-.484-.272c-.246 1.326-.805 3.384-1.676 6.175-.605 1.305-1.515 1.707-2.726 1.205-1.25-.643-1.591-1.606-1.023-2.892.909-2.349 1.505-4.508 1.79-6.475-.436-.22-.862-.427-1.279-.618a29.45 29.45 0 00-1.221-.527l-.029.06a23.772 23.772 0 01-1.363 4.097c-.606 1.406-1.33 2.59-2.173 3.554s-1.785 1.486-2.826 1.567c-1.477-.021-2.581-.733-3.31-2.14-.729-1.406-.97-3.283-.724-5.632.19-1.326.677-2.485 1.463-3.48.786-.992 1.695-1.776 2.727-2.349a7.538 7.538 0 013.309-.948c.076-.642.142-1.265.199-1.867.075-.965-.246-1.456-.966-1.477h-3.38c-1.515 0-2.273-.803-2.273-2.409 0-1.607.758-2.41 2.273-2.41zm.824 17.86c.416-.02.781-.29 1.093-.813a8.135 8.135 0 00.781-1.807c.208-.683.37-1.29.483-1.822.114-.532.171-.808.171-.829-.625 0-1.175.172-1.648.513a3.38 3.38 0 00-1.065 1.205 6.202 6.202 0 00-.497 1.234c-.133.784-.1 1.365.1 1.747.198.382.392.573.582.573zM67.45 9.916c0-1.506.71-2.26 2.13-2.26h1.448l.312-1.807c.209-1.064.947-1.606 2.216-1.627 1.326.081 1.875.703 1.647 1.868a12.198 12.198 0 00-.255 1.567h1.477c1.42 0 2.13.753 2.13 2.259 0 1.525-.71 2.288-2.13 2.288h-2.16a5085.39 5085.39 0 00-2.413 10.814c-.284 1.184-1.08 1.666-2.386 1.446-1.288-.301-1.78-1.105-1.478-2.41 1.194-4.618 1.95-7.901 2.273-9.85h-.682c-1.42 0-2.13-.763-2.13-2.288zm15.991 5.18v2.952c.852.322 1.912.853 3.182 1.596.813.642.927 1.567.34 2.771-.663.985-1.458 1.185-2.386.603a13.2 13.2 0 00-1.136-.512v1.958c0 1.526-.241 2.675-.725 3.449-.482.772-1.065 1.294-1.747 1.566a5.565 5.565 0 01-2.073.406 6.56 6.56 0 01-2.684-.452c-.881-.342-1.629-.953-2.244-1.837-.616-.883-.923-2.129-.923-3.735.019-2.068.62-3.69 1.803-4.865 1.183-1.174 2.817-1.691 4.9-1.55v-2.35c0-1.305.616-1.958 1.847-1.958 1.23 0 1.846.653 1.846 1.958zM78.896 25.64c.284-.021.497-.172.639-.452.143-.281.214-.653.214-1.115v-2.56c-1.023-.16-1.8-.03-2.33.392-.53.42-.824 1.003-.88 1.746-.02.744.184 1.276.61 1.597.426.322 1.008.452 1.747.392zm1.08-16.808c.378-1.386 1.25-1.888 2.613-1.506l2.556.723c1.364.402 1.856 1.285 1.478 2.65-.398 1.386-1.279 1.888-2.642 1.506l-2.528-.723c-1.383-.382-1.875-1.264-1.478-2.65zM93.58 5.579h4.546c2.651.02 3.901 1.565 3.75 4.638-.114 1.205-.266 2.62-.455 4.246.814.282 1.638.624 2.471 1.025a82.5 82.5 0 00.284-3.494c.075-1.325.691-1.988 1.846-1.988 1.307.04 1.941.703 1.904 1.988-.133 2.168-.275 3.925-.426 5.27l1.136.694c1.381.683 1.799 1.888 1.25 3.614-.645 1.226-1.515 1.507-2.614.844l-.482-.272c-.247 1.326-.806 3.384-1.676 6.175-.607 1.305-1.516 1.707-2.728 1.205-1.249-.643-1.59-1.606-1.022-2.892.91-2.349 1.506-4.508 1.79-6.475-.437-.22-.863-.427-1.278-.618-.418-.19-.824-.367-1.222-.527l-.028.06a23.877 23.877 0 01-1.364 4.097c-.606 1.406-1.331 2.59-2.173 3.554-.843.964-1.784 1.486-2.826 1.567-1.477-.021-2.58-.733-3.31-2.14-.728-1.406-.97-3.283-.724-5.632.19-1.326.677-2.485 1.463-3.48.786-.992 1.695-1.776 2.727-2.349a7.536 7.536 0 013.31-.948c.075-.642.141-1.265.199-1.867.074-.965-.248-1.456-.966-1.477H93.58c-1.515 0-2.272-.803-2.272-2.409 0-1.607.757-2.41 2.272-2.41zm.825 17.86c.416-.02.78-.29 1.094-.813a8.135 8.135 0 00.78-1.807 21.8 21.8 0 00.483-1.822c.114-.532.17-.808.17-.829-.624 0-1.173.172-1.646.513a3.384 3.384 0 00-1.065 1.205 6.26 6.26 0 00-.498 1.234c-.133.784-.1 1.365.1 1.747.198.382.393.573.582.573zm33.348-16.385c0 .2.094.3.284.3h9.231c.511 0 .946.191 1.306.573.36.382.54.838.54 1.37 0 .533-.18.99-.54 1.371-.36.383-.795.573-1.306.573h-23.179c-.492 0-.918-.19-1.278-.572a1.927 1.927 0 01-.54-1.371c0-.533.18-.989.54-1.37.36-.383.786-.573 1.278-.573h1.932c.189 0 .284-.1.284-.301v-2.35c0-.582.199-1.084.596-1.506.398-.42.871-.632 1.421-.632.549 0 1.023.211 1.42.632.397.422.597.924.597 1.507v2.349c0 .2.094.3.284.3h2.642c.188 0 .284-.1.284-.3V3.229c0-.623.202-1.15.61-1.582A1.974 1.974 0 01125.651 1h.652c.398 0 .739.15 1.023.452.284.3.427.662.427 1.084 0 .12.056.18.17.18h6.789c.454 0 .842.172 1.164.513.322.341.483.758.483 1.25s-.161.909-.483 1.25c-.322.34-.71.512-1.164.512h-6.675c-.19 0-.284.1-.284.3v.513zm5.595 18.283c.189 0 .284-.1.284-.3V14.071c0-.602.199-1.115.597-1.536.397-.421.88-.633 1.448-.633a1.92 1.92 0 011.449.633c.398.421.596.934.596 1.536V28.2c0 .602-.198 1.114-.596 1.535-.398.422-.88.634-1.449.634h-1.022a.962.962 0 01-.725-.317 1.082 1.082 0 01-.298-.768c0-.081-.038-.12-.113-.12h-15.624c-.076 0-.113.039-.113.12 0 .301-.1.558-.298.768a.962.962 0 01-.725.317h-.994c-.55 0-1.022-.212-1.42-.633a2.116 2.116 0 01-.596-1.506V14.042c0-.582.198-1.085.596-1.506.398-.421.87-.633 1.42-.633.549 0 1.023.212 1.42.633.398.421.597.924.597 1.506v7.41c0 .08.029.14.085.18.058.04.114.05.171.03 1.325-.542 2.565-1.315 3.721-2.32.038-.02.051-.054.043-.104-.011-.051-.043-.076-.1-.076h-1.847c-.416 0-.771-.156-1.065-.467a1.58 1.58 0 01-.439-1.13c0-.441.145-.818.439-1.129a1.411 1.411 0 011.065-.466h.029c.113 0 .151-.06.113-.181-.151-.401-.34-.813-.568-1.235a1.442 1.442 0 01-.17-.662c0-.16.019-.311.057-.452.132-.402.379-.663.739-.784.226-.1.463-.15.71-.15.189 0 .378.02.568.06.435.141.766.412.994.813.038.04.075.09.114.15.131.262.198.522.198.784 0 .181-.028.371-.085.572a1.69 1.69 0 01-.937.994h-.028c-.02.02-.025.04-.015.06.009.021.023.031.043.031h1.818c.189 0 .284-.1.284-.301V13.8c0-.522.174-.969.525-1.34.35-.372.772-.558 1.265-.558.491 0 .912.186 1.263.557.35.372.526.82.526 1.341v1.868c0 .2.094.301.284.301h2.244c.018 0 .033-.01.042-.03.01-.02.004-.03-.014-.03l-.227-.09c-.417-.142-.71-.432-.88-.874a1.673 1.673 0 01-.114-.603c0-.24.047-.472.142-.693.208-.461.521-.813.937-1.054.265-.14.54-.211.824-.211.17 0 .331.03.483.09h.057c.397.121.672.393.823.814.057.16.086.322.086.482 0 .261-.077.502-.228.723a54.707 54.707 0 01-.823 1.265c-.038.04-.043.085-.014.136.028.05.06.075.099.075h.511c.416 0 .771.155 1.065.466.294.311.441.688.441 1.13 0 .443-.147.819-.441 1.13a1.413 1.413 0 01-1.065.466h-1.988c-.057 0-.091.025-.1.076-.009.05.004.085.043.105A12.185 12.185 0 00131.899 21c.359.2.578.522.654.964.019.08.028.17.028.271 0 .301-.104.582-.312.844-.361.42-.777.692-1.25.813-.133.04-.275.06-.426.06-.323 0-.635-.1-.938-.302a16.48 16.48 0 01-2.158-1.928c-.039-.04-.082-.05-.128-.03-.048.021-.071.061-.071.121v1.115c0 .522-.176.969-.526 1.34-.351.371-.772.557-1.263.557-.493 0-.915-.186-1.265-.557a1.88 1.88 0 01-.525-1.34v-.994c0-.061-.024-.101-.071-.12-.048-.02-.091-.01-.128.03a14.625 14.625 0 01-1.619 1.536c-.436.32-.891.482-1.364.482-.17 0-.34-.021-.51-.061-.664-.16-1.242-.533-1.734-1.114a2.453 2.453 0 01-.312-.332c-.038-.04-.081-.05-.127-.03-.048.02-.072.06-.072.12v2.591c0 .2.095.301.285.301h15.281zm18.066-8.283a2.61 2.61 0 01.682 1.627v.18c0 .563-.162 1.075-.484 1.536-.246.362-.568.543-.965.543a.458.458 0 01-.143-.03c-.454-.04-.785-.272-.994-.693a3.425 3.425 0 01-.198-.361c-.019-.04-.048-.056-.086-.046-.038.01-.056.036-.056.076v8.945a2.16 2.16 0 01-.597 1.537 1.916 1.916 0 01-1.449.632c-.568 0-1.05-.21-1.448-.632-.398-.422-.596-.935-.596-1.537v-7.048c0-.04-.015-.065-.043-.075-.028-.01-.053.005-.071.045a31.774 31.774 0 01-1.222 2.59c-.209.382-.511.573-.908.573h-.142c-.474-.06-.816-.322-1.024-.783a4.18 4.18 0 01-.368-1.747v-.302a4.672 4.672 0 01.624-1.988c.91-1.526 1.742-3.283 2.5-5.27a.271.271 0 00-.028-.212c-.039-.06-.086-.09-.142-.09h-1.336a1.839 1.839 0 01-1.391-.602 2.05 2.05 0 01-.569-1.462c0-.571.189-1.063.569-1.476a1.815 1.815 0 011.391-.617h1.876c.188 0 .284-.1.284-.3v-2.26a.248.248 0 00-.086-.195.286.286 0 00-.198-.076l-.852.15c-.096.02-.19.03-.284.03a1.68 1.68 0 01-1.024-.361 2.468 2.468 0 01-.852-1.205 1.674 1.674 0 01.086-1.265c.208-.401.529-.642.966-.723a49.434 49.434 0 005.794-1.535c.284-.101.568-.15.852-.15.284 0 .577.049.88.15a2.47 2.47 0 011.364 1.114c.189.28.284.582.284.903 0 .18-.038.371-.114.573-.17.521-.501.852-.994.994-.473.14-.956.271-1.448.39-.19.04-.284.161-.284.363v3.102c0 .2.094.301.284.301h1.335a1.82 1.82 0 011.391.617c.379.413.569.905.569 1.476 0 .573-.19 1.06-.569 1.462a1.84 1.84 0 01-1.391.602h-1.563c-.038 0-.056.02-.056.06 0 .04.018.07.056.09.379.362 1.108 1.155 2.188 2.38zm16.93 3.555a2.246 2.246 0 01-.341 1.597c-.323.48-.758.772-1.307.873l-.994.21c-.19.02-.284.13-.284.331v5.151c0 .603-.204 1.119-.611 1.552-.408.43-.9.647-1.477.647-.578 0-1.07-.216-1.477-.647a2.18 2.18 0 01-.61-1.552v-4.337a.25.25 0 00-.086-.196c-.057-.05-.114-.065-.17-.045l-6.136 1.174c-.132.02-.256.03-.369.03a1.83 1.83 0 01-1.137-.39 2.082 2.082 0 01-.823-1.387 2.38 2.38 0 01-.029-.39c0-.443.123-.854.369-1.236.322-.503.767-.804 1.336-.904l6.789-1.295c.17-.02.256-.13.256-.331V3.89c0-.622.202-1.149.61-1.58a1.955 1.955 0 011.477-.649c.577 0 1.069.216 1.477.648.407.432.611.959.611 1.581v14.79c0 .08.028.145.085.196.057.05.114.065.17.044l.37-.06c.132-.02.256-.03.369-.03.398 0 .776.13 1.136.392.455.34.72.803.796 1.386zm-14.204-5.241a1.776 1.776 0 01-.539-1.296c0-.502.18-.924.539-1.265.399-.382.853-.582 1.365-.602h.084a1.9 1.9 0 011.308.512 48.911 48.911 0 011.846 1.777c.359.401.54.864.54 1.386 0 .642-.228 1.184-.682 1.626-.342.341-.739.512-1.194.512h-.17c-.512-.06-.947-.302-1.306-.722a32.84 32.84 0 00-1.791-1.928zm5.511-9.007c.342.382.512.823.512 1.326v.21a2.183 2.183 0 01-.71 1.446c-.341.321-.721.482-1.136.482a.889.889 0 01-.228-.03 1.894 1.894 0 01-1.306-.723 23.57 23.57 0 00-1.648-1.868 1.721 1.721 0 01-.511-1.264c0-.522.189-.955.568-1.296.397-.36.861-.541 1.391-.541.531 0 .985.18 1.364.541a29.941 29.941 0 011.704 1.717zm19.629 1.055h5.028c3.369-.04 4.789 1.907 4.26 5.843-.246 1.787-.786 3.68-1.619 5.678-.834 1.997-1.86 3.64-3.082 4.925-1.222 1.285-2.485 2.318-3.792 3.102a29.256 29.256 0 01-4.232 2.079c-1.345.541-2.329.14-2.955-1.205-.397-1.546.01-2.57 1.222-3.073.568-.16 1.382-.512 2.443-1.054 1.06-.542 2.167-1.365 3.323-2.47a13.48 13.48 0 002.798-3.826c.711-1.445 1.131-2.75 1.264-3.915.132-1.044-.303-1.576-1.306-1.597h-5.085c-1.099 1.888-2.197 3.384-3.295 4.488-1.118 1.125-2.178 1.286-3.181.483-.929-1.325-.919-2.5.028-3.524.529-.503 1.155-1.286 1.875-2.35.719-1.064 1.41-2.64 2.073-4.73.398-1.505 1.382-2.107 2.955-1.806 1.306.4 1.732 1.385 1.278 2.952zm13.691-.452c0-1.546.728-2.32 2.187-2.32 1.477 0 2.216.774 2.216 2.32v9.488c0 1.546-.729 2.319-2.188 2.319-1.476 0-2.215-.773-2.215-2.319V6.964zm5.369 17.74c1.495-.622 2.58-1.315 3.252-2.078.672-.762 1.25-1.702 1.733-2.816.483-1.115.734-2.494.752-4.14V6.963c0-1.546.729-2.32 2.188-2.32 1.476 0 2.216.774 2.216 2.32v8.705c-.02 2.51-.398 4.644-1.137 6.4-.739 1.757-1.714 3.178-2.925 4.262-1.213 1.085-2.746 2.028-4.602 2.832-1.496.482-2.482 0-2.955-1.446-.284-1.606.209-2.61 1.478-3.013zm30.109-1.324c1.478 0 2.216.783 2.216 2.349 0 1.586-.738 2.38-2.216 2.38h-13.577c-1.477 0-2.216-.784-2.216-2.35 0-1.586.739-2.379 2.216-2.379h13.577zM213.196 8.41c0-1.567.739-2.35 2.215-2.35h12.442c1.477 0 2.216.784 2.216 2.35 0 1.587-.739 2.38-2.216 2.38h-12.442c-1.476 0-2.215-.784-2.215-2.35v-.03zm23.349 1.746l1.108 7.23c.131 1.063-.275 1.696-1.222 1.897-.947.18-1.487-.271-1.618-1.355l-1.137-7.139c-.113-1.085.322-1.687 1.307-1.808.947-.08 1.467.311 1.562 1.175zm.739 18.736c-1.346.32-2.15-.162-2.415-1.446-.189-1.425.256-2.24 1.335-2.44a8.862 8.862 0 004.091-2.184c1.173-1.094 2.102-2.415 2.783-3.96a26.59 26.59 0 001.549-4.518c.35-1.467.571-2.591.667-3.374.132-1.286.804-1.938 2.016-1.958 1.288.06 1.837.813 1.648 2.259-.379 3.012-.89 5.386-1.534 7.123a21.239 21.239 0 01-2.584 4.895c-1.08 1.527-2.302 2.766-3.665 3.72-1.363.954-2.661 1.582-3.891 1.883zm4.005-18.736l1.108 7.23c.131 1.063-.285 1.696-1.25 1.897-.947.18-1.487-.271-1.619-1.355l-1.137-7.139c-.095-1.085.341-1.687 1.307-1.808.966-.08 1.496.311 1.591 1.175zm19.314-2.74h5.028c3.371-.04 4.791 1.907 4.261 5.843-.246 1.787-.786 3.68-1.619 5.678-.833 1.997-1.861 3.64-3.081 4.925-1.222 1.285-2.487 2.318-3.793 3.102a29.256 29.256 0 01-4.232 2.079c-1.346.541-2.33.14-2.954-1.205-.398-1.546.008-2.57 1.221-3.073.568-.16 1.382-.512 2.443-1.054 1.06-.542 2.168-1.365 3.324-2.47a13.477 13.477 0 002.797-3.826c.71-1.445 1.131-2.75 1.265-3.915.131-1.044-.304-1.576-1.308-1.597h-5.084c-1.098 1.888-2.197 3.384-3.295 4.488-1.117 1.125-2.178 1.286-3.181.483-.928-1.325-.92-2.5.028-3.524.53-.503 1.154-1.286 1.875-2.35.719-1.064 1.41-2.64 2.073-4.73.398-1.505 1.382-2.107 2.954-1.806 1.307.4 1.734 1.385 1.278 2.952zM31.177 5.66c-.916-.776-2.028-1.326-3.19-1.662-2.204-.637-4.55.173-6.034 1.957a4.522 4.522 0 01-3.485 1.648 4.517 4.517 0 01-3.39-1.538C13.428 4.2 10.93 3.328 8.591 4.107c-1.023.34-1.998.855-2.822 1.554C.51 10.128 4.063 20.517 4.698 22.348c1.83 5.268 5.44 9.642 7.483 9.644 1.533.001 2.469.052 3.694-4.98.322-1.315 1.034-2.212 1.728-2.67a1.43 1.43 0 011.54-.015c.728.455 1.504 1.357 1.828 2.685 1.227 5.032 2.332 5.028 3.746 4.98 2.038-.07 5.68-4.376 7.506-9.644.633-1.83 4.212-12.22-1.046-16.687z" fill="#1391E6"/><path d="M14.464 17.252c0 2.071 1.646 3.75 3.676 3.75 2.03 0 3.675-1.679 3.675-3.75h-7.35z" fill="#fff"/><path d="M1.65 6.388c.093.324.427.664.744.757l.214.064c.317.092.317.246 0 .339l-.214.063c-.317.094-.651.434-.743.757l-.062.22c-.091.323-.242.323-.332 0l-.062-.22c-.091-.323-.425-.663-.742-.757l-.215-.063c-.317-.093-.317-.247 0-.34l.215-.063c.317-.093.65-.433.742-.757l.062-.22c.09-.323.24-.323.332 0l.062.22zM4.447.942c.187.66.868 1.356 1.515 1.546l.438.128c.647.192.647.504 0 .694l-.438.128c-.647.19-1.328.887-1.515 1.546l-.126.447c-.186.66-.492.66-.678 0l-.127-.447C3.329 4.324 2.647 3.628 2 3.438l-.438-.128c-.646-.19-.646-.502 0-.694L2 2.488c.646-.19 1.328-.886 1.515-1.546l.127-.446c.186-.661.492-.661.678 0l.126.446z" fill="#1391E6"/><path d="M14.085 11.865a1.014 1.014 0 012.028 0v2.11a1.014 1.014 0 11-2.028 0v-2.11zm6.082 0a1.014 1.014 0 112.027 0v2.11a1.014 1.014 0 11-2.027 0v-2.11z" fill="#fff"/></svg>