<svg width="864" height="726" fill="none" xmlns="http://www.w3.org/2000/svg"><path d="M867.51 662.075C-22.722 908.769-67.273 373.731 52.336 203.595c119.609-170.136 386.581-102.58 512.429-78.135C690.613 149.904 867.51 81.032 867.51 81.032S1021.61.473 1121.13 12.16c99.53 11.684 173.99 65.966 187.49 174.233 15.96 128.009-105.13 383.471-441.11 475.683zM26.283 122.351c1.464 4.927 6.787 10.105 11.833 11.534l3.404.967c5.045 1.41 5.045 3.748 0 5.158l-3.404.966c-5.046 1.429-10.369 6.607-11.833 11.534l-.99 3.342c-1.444 4.927-3.838 4.927-5.283 0l-.99-3.342c-1.444-4.927-6.766-10.105-11.812-11.534l-3.424-.966c-5.045-1.41-5.045-3.748 0-5.158l3.424-.967c5.046-1.429 10.368-6.607 11.813-11.534l.99-3.342c1.444-4.927 3.838-4.927 5.283 0l.989 3.342zm60.648-84.835c2.988 10.162 13.832 20.89 24.122 23.822l6.985 1.974c10.289 2.95 10.289 7.759 0 10.69l-6.985 1.974c-10.29 2.931-21.134 13.66-24.122 23.822l-1.998 6.88c-2.968 10.181-7.836 10.181-10.804 0l-2.019-6.88c-2.968-10.162-13.831-20.89-24.12-23.822l-6.966-1.974c-10.29-2.931-10.29-7.74 0-10.69l6.965-1.974c10.29-2.931 21.153-13.66 24.121-23.822l2.019-6.88c2.968-10.181 7.836-10.181 10.804 0l1.998 6.88z" fill="#DFF1FD"/><path d="M693.111 98.365c-4.411 0-8.446-2.916-9.642-7.339-1.428-5.28 1.734-10.709 7.061-12.125 15.878-4.219 25.331-20.452 21.074-36.187-2.061-7.622-6.995-13.993-13.892-17.937-6.895-3.945-14.929-4.992-22.621-2.948-15.877 4.219-25.331 20.452-21.074 36.186 1.428 5.281-1.733 10.71-7.061 12.126-5.328 1.414-10.808-1.718-12.235-6.998-3.445-12.73-1.68-26.028 4.968-37.443s17.382-19.582 30.228-22.995C682.762-.71 696.179 1.04 707.698 7.63c11.519 6.587 19.759 17.227 23.202 29.957 7.111 26.28-8.679 53.393-35.196 60.438-.866.231-1.737.34-2.593.34z" fill="#DFF1FD"/></svg>