<svg width="1280" height="32" fill="none" xmlns="http://www.w3.org/2000/svg"><path d="M0 14.24c10.619 0 15.999-3.69 21.207-7.26C26.418 3.41 31.374 0 41.5 0s15.084 3.39 20.292 7c5.21 3.61 10.61 7.24 21.208 7.24V32H0V14.24zm83 0c10.619 0 15.999-3.69 21.208-7.26C109.416 3.41 114.374 0 124.5 0c10.126 0 15.084 3.39 20.292 7 5.209 3.61 10.609 7.24 21.208 7.24V32H83V14.24zm83 0c10.619 0 15.999-3.69 21.208-7.26C192.416 3.41 197.374 0 207.5 0c10.126 0 15.084 3.39 20.292 7 5.209 3.61 10.609 7.24 21.208 7.24V32h-83V14.24zm83 0c10.619 0 15.999-3.69 21.208-7.26C275.416 3.41 280.374 0 290.5 0c10.126 0 15.084 3.39 20.292 7 5.209 3.61 10.609 7.24 21.208 7.24V32h-83V14.24zm83 0c10.619 0 15.999-3.69 21.208-7.26C358.416 3.41 363.374 0 373.5 0c10.126 0 15.084 3.39 20.292 7 5.209 3.61 10.609 7.24 21.208 7.24V32h-83V14.24zm83 0c10.619 0 15.999-3.69 21.208-7.26C441.416 3.41 446.374 0 456.5 0c10.126 0 15.084 3.39 20.292 7 5.209 3.61 10.609 7.24 21.208 7.24V32h-83V14.24zm83 0c10.619 0 15.999-3.69 21.208-7.26C524.416 3.41 529.374 0 539.5 0c10.126 0 15.084 3.39 20.292 7 5.209 3.61 10.609 7.24 21.208 7.24V32h-83V14.24zm83 0c10.619 0 15.999-3.69 21.208-7.26C607.416 3.41 612.374 0 622.5 0c10.126 0 15.084 3.39 20.292 7 5.209 3.61 10.609 7.24 21.208 7.24V32h-83V14.24zm83 0c10.619 0 15.999-3.69 21.208-7.26C690.416 3.41 695.374 0 705.5 0c10.126 0 15.084 3.39 20.292 7 5.209 3.61 10.609 7.24 21.208 7.24V32h-83V14.24zm83 0c10.619 0 15.999-3.69 21.208-7.26C773.416 3.41 778.374 0 788.5 0c10.126 0 15.084 3.39 20.292 7 5.209 3.61 10.609 7.24 21.208 7.24V32h-83V14.24zm83 0c10.619 0 15.999-3.69 21.208-7.26C856.416 3.41 861.374 0 871.5 0c10.126 0 15.084 3.39 20.292 7 5.209 3.61 10.609 7.24 21.208 7.24V32h-83V14.24zm83 0c10.619 0 15.999-3.69 21.208-7.26C939.416 3.41 944.374 0 954.5 0c10.126 0 15.084 3.39 20.292 7 5.209 3.61 10.609 7.24 21.208 7.24V32h-83V14.24zm83 0c10.62 0 16-3.69 21.21-7.26 5.21-3.57 10.16-6.98 20.29-6.98 10.13 0 15.08 3.39 20.29 7 5.21 3.61 10.61 7.24 21.21 7.24V32h-83V14.24zm83 0c10.62 0 16-3.69 21.21-7.26 5.21-3.57 10.16-6.98 20.29-6.98 10.13 0 15.08 3.39 20.29 7 5.21 3.61 10.61 7.24 21.21 7.24V32h-83V14.24zm83 0c10.62 0 16-3.69 21.21-7.26 5.21-3.57 10.16-6.98 20.29-6.98 10.13 0 15.08 3.39 20.29 7 5.21 3.61 10.61 7.24 21.21 7.24V32h-83V14.24zm83 0c10.62 0 16-3.69 21.21-7.26 5.21-3.57 10.16-6.98 20.29-6.98 10.13 0 15.08 3.39 20.29 7 5.21 3.61 10.61 7.24 21.21 7.24V32h-83V14.24z" fill="#DFF1FD"/></svg>