<svg width="57" height="56" viewBox="0 0 57 56" fill="none" xmlns="http://www.w3.org/2000/svg">
<path d="M23.9371 8.9014C22.0948 15.1336 15.409 21.7134 9.06487 23.5111L4.75816 24.7216C-1.58605 26.5313 -1.58605 29.4797 4.75816 31.2774L9.06487 32.488C15.409 34.2857 22.0948 40.8655 23.9371 47.0976L25.1693 51.3164C26.9994 57.5606 30.0006 57.5606 31.8307 51.3164L33.0751 47.0976C34.9051 40.8655 41.6032 34.2857 47.9473 32.488L52.2418 31.2774C58.5861 29.4797 58.5861 26.5313 52.2418 24.7216L47.9473 23.5111C41.6032 21.7134 34.9051 15.1336 33.0751 8.9014L31.8307 4.6827C30.0006 -1.56155 26.9994 -1.56155 25.1693 4.6827L23.9371 8.9014Z" fill="white"/>
</svg>
