<svg width="1280" height="214" fill="none" xmlns="http://www.w3.org/2000/svg"><path d="M640 214c298.613 0 551.82-40.678 640-97H0c88.183 56.322 341.388 97 640 97z" fill="#DFF1FD"/><path d="M1160.35 100.16c1.46 5.012 6.74 10.279 11.76 11.734l3.38.983c5.01 1.434 5.01 3.813 0 5.247l-3.38.983c-5.02 1.454-10.3 6.722-11.76 11.734l-.98 3.4c-1.44 5.012-3.81 5.012-5.25 0l-.98-3.4c-1.44-5.012-6.72-10.28-11.74-11.734l-3.4-.983c-5.01-1.434-5.01-3.813 0-5.247l3.4-.983c5.02-1.455 10.3-6.722 11.74-11.734l.98-3.4c1.44-5.013 3.81-5.013 5.25 0l.98 3.4zm60.57-85.536c2.97 10.24 13.76 21.049 24 24.002l6.95 1.989c10.24 2.973 10.24 7.817 0 10.77l-6.95 1.989c-10.24 2.953-21.03 13.763-24 24.001l-1.99 6.931c-2.96 10.259-7.8 10.259-10.75 0l-2.01-6.93c-2.96-10.239-13.77-21.049-24.01-24.002l-6.93-1.989c-10.24-2.953-10.24-7.797 0-10.77l6.93-1.989c10.24-2.953 21.05-13.763 24.01-24.002l2.01-6.93c2.95-10.259 7.79-10.259 10.75 0l1.99 6.93zM63.937 68.901c-1.842 6.233-8.528 12.812-14.872 14.61l-4.307 1.21c-6.344 1.81-6.344 4.759 0 6.556l4.307 1.211c6.344 1.798 13.03 8.378 14.872 14.61l1.232 4.218c1.83 6.245 4.832 6.245 6.662 0l1.244-4.218c1.83-6.232 8.528-12.812 14.872-14.61l4.295-1.21c6.344-1.798 6.344-4.747 0-6.556l-4.295-1.21c-6.344-1.799-13.042-8.378-14.872-14.61l-1.244-4.22c-1.83-6.244-4.832-6.244-6.662 0l-1.232 4.22z" fill="#fff"/></svg>