<svg width="1280" height="203" fill="none" xmlns="http://www.w3.org/2000/svg"><path d="M814.735 102.995c-72.33 8.202-121.325 11.396-174.768 11.396-53.432 0-102.425-3.194-174.711-11.391-133.613-15.215-257.506-5.444-348.792 27.525C66.124 148.706 26.899 173.331 0 203h1280c-26.9-29.668-66.12-54.291-116.45-72.471-91.28-32.973-215.189-42.733-348.815-27.534zm-766.452 7.352c1.464 5.029 6.787 10.315 11.833 11.775l3.404.986c5.045 1.44 5.045 3.827 0 5.267l-3.404.986c-5.046 1.459-10.369 6.746-11.833 11.775l-.99 3.413c-1.444 5.029-3.838 5.029-5.283 0l-.99-3.413c-1.444-5.029-6.767-10.316-11.812-11.775l-3.424-.986c-5.046-1.44-5.046-3.827 0-5.267l3.424-.986c5.046-1.46 10.368-6.746 11.813-11.775l.99-3.413c1.444-5.029 3.838-5.029 5.283 0l.989 3.413zm60.648-84.697c2.988 10.257 13.832 21.086 24.122 24.044l6.985 1.992c10.289 2.979 10.289 7.831 0 10.79l-6.985 1.992c-10.29 2.958-21.134 13.787-24.122 24.044l-1.998 6.943c-2.968 10.276-7.836 10.276-10.804 0l-2.019-6.943c-2.968-10.257-13.83-21.086-24.12-24.044l-6.966-1.992c-10.29-2.959-10.29-7.811 0-10.79l6.965-1.992C80.28 46.736 91.142 35.907 94.11 25.65l2.019-6.943c2.968-10.276 7.836-10.276 10.804 0l1.998 6.943zM1208.73 72.371c-1.85 6.384-8.58 13.124-14.96 14.966l-4.34 1.24c-6.38 1.853-6.38 4.873 0 6.715l4.34 1.24c6.38 1.841 13.11 8.581 14.96 14.965l1.24 4.321c1.84 6.396 4.86 6.396 6.7 0l1.26-4.321c1.84-6.384 8.58-13.124 14.96-14.965l4.32-1.24c6.39-1.842 6.39-4.862 0-6.716l-4.32-1.24c-6.38-1.84-13.12-8.58-14.96-14.965l-1.26-4.321c-1.84-6.396-4.86-6.396-6.7 0l-1.24 4.321zM669.995 89.014a9.97 9.97 0 01-7.071-2.928c-3.906-3.906-3.906-10.238 0-14.143 5.637-5.637 8.741-13.132 8.741-21.103 0-7.972-3.104-15.466-8.741-21.103-5.637-5.637-13.132-8.74-21.103-8.74-7.972 0-15.466 3.103-21.104 8.74-11.636 11.636-11.636 30.57 0 42.206 3.906 3.905 3.906 10.237 0 14.143-3.904 3.905-10.235 3.904-14.141 0-19.435-19.435-19.435-51.057 0-70.49 9.414-9.415 21.932-14.6 35.245-14.6 13.314 0 25.831 5.185 35.245 14.6 9.414 9.413 14.599 21.93 14.599 35.244s-5.185 25.83-14.599 35.246a9.973 9.973 0 01-7.071 2.928z" fill="#DFF1FD"/></svg>