<svg width="52" height="32" fill="none" xmlns="http://www.w3.org/2000/svg"><path d="M47.79 7.558h-9.65a2.068 2.068 0 00-2.067 2.068v17.918c0 1.142.926 2.068 2.067 2.068h9.649a2.068 2.068 0 002.067-2.068V9.626a2.068 2.068 0 00-2.067-2.068zm-4.824 20.676a1.377 1.377 0 01-1.379-1.379c0-.762.616-1.378 1.379-1.378.762 0 1.378.616 1.378 1.378 0 .763-.616 1.379-1.378 1.379zm4.824-4.652a.518.518 0 01-.517.517h-8.615a.518.518 0 01-.517-.517v-13.44c0-.284.233-.516.517-.516h8.615c.284 0 .517.232.517.517v13.439zM30.507 1H3.682A2.683 2.683 0 001 3.682v17.883a2.683 2.683 0 002.682 2.682h10.73l-.894 2.683H9.494c-.743 0-1.34.598-1.34 1.34 0 .744.597 1.342 1.34 1.342h15.2c.744 0 1.342-.598 1.342-1.341s-.598-1.341-1.341-1.341H20.67l-.894-2.683h10.73a2.683 2.683 0 002.682-2.682V3.682A2.683 2.683 0 0030.507 1zm-.894 19.67H4.577V4.577h25.036v16.095z" fill="#fff"/></svg>